<?xml version="1.0" encoding="UTF-8" standalone="no"?>
<svg
   viewBox="0 0 3075.0099 613.65997"
   version="1.1"
   id="svg35"
   sodipodi:docname="DESIRE6G_Logo_Main_Horizontal_cropped.svg"
   width="3075.01"
   height="613.65997"
   inkscape:version="1.2.2 (732a01da63, 2022-12-09)"
   xmlns:inkscape="http://www.inkscape.org/namespaces/inkscape"
   xmlns:sodipodi="http://sodipodi.sourceforge.net/DTD/sodipodi-0.dtd"
   xmlns:xlink="http://www.w3.org/1999/xlink"
   xmlns="http://www.w3.org/2000/svg"
   xmlns:svg="http://www.w3.org/2000/svg">
  <sodipodi:namedview
     id="namedview37"
     pagecolor="#ffffff"
     bordercolor="#000000"
     borderopacity="0.25"
     inkscape:showpageshadow="2"
     inkscape:pageopacity="0.0"
     inkscape:pagecheckerboard="0"
     inkscape:deskcolor="#d1d1d1"
     showgrid="false"
     inkscape:zoom="0.34558296"
     inkscape:cx="1377.3827"
     inkscape:cy="321.1964"
     inkscape:window-width="2560"
     inkscape:window-height="1369"
     inkscape:window-x="-8"
     inkscape:window-y="-8"
     inkscape:window-maximized="1"
     inkscape:current-layer="svg35" />
  <defs
     id="defs10">
    <style
       id="style2">.cls-1{fill:#3b0014;}.cls-2{fill:url(#Sfumatura_senza_nome_30);}.cls-3{fill:url(#Sfumatura_senza_nome_30-2);}</style>
    <linearGradient
       id="Sfumatura_senza_nome_30"
       x1="554.88"
       y1="908.27002"
       x2="554.88"
       y2="579.53003"
       gradientUnits="userSpaceOnUse">
      <stop
         offset="0"
         stop-color="#ff0340"
         id="stop4" />
      <stop
         offset="0.99"
         stop-color="#3b0014"
         id="stop6" />
    </linearGradient>
    <linearGradient
       id="Sfumatura_senza_nome_30-2"
       x1="331.16"
       y1="908.27002"
       x2="331.16"
       y2="579.53003"
       xlink:href="#Sfumatura_senza_nome_30" />
    <linearGradient
       inkscape:collect="always"
       xlink:href="#Sfumatura_senza_nome_30"
       id="linearGradient197"
       gradientUnits="userSpaceOnUse"
       x1="554.88"
       y1="908.27002"
       x2="554.88"
       y2="579.53003" />
  </defs>
  <title
     id="title12">DESIRE6G_Logo_Main_Horizontal</title>
  <g
     id="Livello_2"
     data-name="Livello 2"
     transform="translate(-213.17,-428.1)">
    <path
       class="cls-1"
       d="m 1103.65,611.6 q -29.68,-17.4 -68.33,-17.4 h -91.63 v 281.45 h 92.79 q 38.08,0 67.46,-17.3 a 123.19,123.19 0 0 0 46.2,-48 Q 1167,779.58 1167,739.76 v -9.47 q 0,-40 -16.82,-70.65 a 123.47,123.47 0 0 0 -46.53,-48.04 z m -10.54,128.16 q 0,26.1 -6.57,43.3 -6.57,17.2 -19.14,25.71 -12.57,8.51 -30.93,8.51 h -20.1 V 652.77 h 18.94 q 19.14,0 32,8.51 12.86,8.51 19.33,25.61 6.47,17.11 6.48,43 z"
       id="path14" />
    <polygon
       class="cls-1"
       points="1278.62,875.65 1325.59,875.65 1351.3,875.65 1474.24,875.65 1474.24,817.28 1351.3,817.28 1351.3,759.48 1455.11,759.48 1455.11,703.23 1351.3,703.23 1351.3,652.77 1474.82,652.77 1474.82,594.2 1351.3,594.2 1325.59,594.2 1278.62,594.2 "
       id="polygon16" />
    <path
       class="cls-1"
       d="m 1667.57,650.84 q 8,-3.28 19.81,-3.29 12.18,0 20,3.87 a 25.64,25.64 0 0 1 11.6,10.83 33.17,33.17 0 0 1 3.77,16 h 72.3 q 0,-27.44 -13.63,-47.17 -13.63,-19.73 -37.5,-30.25 -23.88,-10.53 -55,-10.54 -31.51,0 -56.25,9.76 -24.74,9.76 -39,27.64 -14.31,17.89 -14.3,42.62 0,19.53 8.12,34.12 a 83.38,83.38 0 0 0 21.84,25.32 155.62,155.62 0 0 0 30.93,18.65 365.65,365.65 0 0 0 35.38,14.11 q 20.3,6.77 30.25,12.47 9.95,5.7 13.14,11.5 a 27.22,27.22 0 0 1 3.19,13.34 21.3,21.3 0 0 1 -3.09,11 q -3.1,5.22 -10.15,8.51 -7.05,3.29 -19,3.29 a 90,90 0 0 1 -20.3,-2 35.14,35.14 0 0 1 -14.5,-6.77 28,28 0 0 1 -8.6,-12.47 q -2.81,-7.73 -2.8,-19.33 H 1571 q 0,25.71 10.15,44.17 a 87.2,87.2 0 0 0 27.26,30.25 121.63,121.63 0 0 0 38.27,17.4 168,168 0 0 0 43.2,5.61 q 31.9,0 55.48,-9.28 23.58,-9.28 36.44,-27.16 12.85,-17.88 12.85,-43.59 0,-24.16 -11,-41.85 -11,-17.69 -32,-30.54 -21,-12.85 -51.13,-22.52 -14.5,-4.83 -25.52,-9.67 -11.02,-4.84 -17.2,-10.44 -6.19,-5.6 -6.19,-13.14 a 19.41,19.41 0 0 1 4,-11.89 q 3.93,-5.27 11.96,-8.56 z"
       id="path18" />
    <rect
       class="cls-1"
       x="1911.73"
       y="594.20001"
       width="72.300003"
       height="281.45001"
       id="rect20" />
    <path
       class="cls-1"
       d="m 2299.72,747.78 a 70,70 0 0 0 20.68,-26.68 q 7.44,-16.33 7.44,-41.46 0,-28 -13.14,-47 -13.14,-19 -37.31,-28.64 -24.17,-9.76 -57.22,-9.76 h -112.5 v 281.41 h 72.49 V 780 h 32.08 l 47.17,95.69 h 77.71 V 872.6 L 2279.9,760.25 a 123.6,123.6 0 0 0 19.82,-12.47 z m -119.56,-95 h 40 q 17.4,0 26.29,9.09 8.89,9.09 8.89,25.32 0,11.22 -4,18.85 a 25.62,25.62 0 0 1 -12,11.5 q -8,3.87 -20,3.87 h -39.24 z"
       id="path22" />
    <polygon
       class="cls-1"
       points="2445.11,875.65 2492.08,875.65 2517.79,875.65 2640.73,875.65 2640.73,817.28 2517.79,817.28 2517.79,759.48 2621.6,759.48 2621.6,703.23 2517.79,703.23 2517.79,652.77 2641.31,652.77 2641.31,594.2 2517.79,594.2 2492.08,594.2 2445.11,594.2 "
       id="polygon24" />
    <path
       class="cls-1"
       d="m 2909.45,697.43 q -17.69,-12.76 -43.4,-12.76 -19.14,0 -33.44,7 a 77.86,77.86 0 0 0 -20.42,14.2 72.71,72.71 0 0 1 5.05,-16.72 63.22,63.22 0 0 1 18.56,-24.26 78.55,78.55 0 0 1 27.74,-13.89 125.62,125.62 0 0 1 34,-4.45 h 3.67 v -57 H 2890 a 163.27,163.27 0 0 0 -56.35,9.76 143.54,143.54 0 0 0 -47.75,28.8 q -21,19 -33.06,47.17 -12.06,28.17 -12.08,64.85 v 24.37 q 0,28 7.93,49.58 7.93,21.58 22.13,36.05 a 93.63,93.63 0 0 0 33.35,21.94 113.68,113.68 0 0 0 41.56,7.44 q 29.19,0 51.71,-12.76 a 93.62,93.62 0 0 0 35.38,-34.8 q 12.85,-22 12.85,-49.68 0,-28 -9.28,-50.07 -9.28,-22.07 -26.94,-34.77 z m -37.69,105.74 a 36.25,36.25 0 0 1 -11.41,14.83 26.89,26.89 0 0 1 -16.53,5.41 q -11.21,0 -18.56,-5 -7.35,-5 -11,-15.46 -3.68,-10.44 -3.67,-26.87 v -18.73 a 32.1,32.1 0 0 1 11.31,-12 q 7.83,-5 19.62,-5 a 31.88,31.88 0 0 1 29.85,18.65 q 4.54,9.19 4.54,22.91 a 52.39,52.39 0 0 1 -4.15,21.25 z"
       id="path26" />
    <path
       class="cls-1"
       d="m 3171.59,722.17 v 51.42 h 43.88 v 38.27 a 31.41,31.41 0 0 1 -7.15,4.25 55.19,55.19 0 0 1 -11.5,3.58 82.32,82.32 0 0 1 -16.72,1.45 q -19.91,0 -32.48,-8.6 -12.57,-8.6 -18.46,-26.29 -5.9,-17.69 -5.9,-44.75 v -13.15 q 0,-27.64 6.19,-45.33 6.19,-17.69 17.49,-26.19 11.31,-8.5 26.58,-8.51 14.69,0 23.78,4.45 a 32.12,32.12 0 0 1 14.11,13.34 q 5,8.9 6.77,22.42 H 3288 q -2.71,-29 -15.27,-51.23 -12.56,-22.23 -37.31,-34.7 -24.75,-12.47 -64.37,-12.47 -35.18,0 -62.63,16 -27.45,16 -43.11,47 -15.66,30.93 -15.66,75.58 v 12.79 q 0,44.47 15.56,75.29 15.56,30.82 43.69,46.78 28.13,15.95 66,15.95 30.54,0 53.16,-6.28 22.62,-6.28 37.6,-15.27 15,-9 22.52,-17.11 V 722.17 Z"
       id="path28" />
    <polygon
       class="cls-2"
       points="563.59,734.93 329.15,1041.76 546.17,1041.76 780.61,734.93 546.17,428.1 329.15,428.1 "
       id="polygon30"
       style="fill:url(#linearGradient197)" />
    <polygon
       class="cls-3"
       points="336.45,734.93 449.14,882.42 325.87,882.42 213.17,734.93 325.87,587.43 449.14,587.43 "
       id="polygon32"
       style="fill:url(#Sfumatura_senza_nome_30-2)" />
  </g>
</svg>
